<svg xmlns="http://www.w3.org/2000/svg" viewBox="0 0 1280 720" width="1280" height="720">
  <defs>
    <linearGradient id="sky" x1="0" y1="0" x2="0" y2="1">
      <stop offset="0%" stop-color="#070d1c"/><stop offset="55%" stop-color="#0d1b34"/><stop offset="100%" stop-color="#132845"/>
    </linearGradient>
    <linearGradient id="band1" x1="0" y1="0" x2="1" y2="0">
      <stop offset="0%" stop-color="#2bd6a4" stop-opacity="0"/><stop offset="45%" stop-color="#2bd6a4" stop-opacity=".75"/><stop offset="100%" stop-color="#4f6ef7" stop-opacity="0"/>
    </linearGradient>
    <linearGradient id="band2" x1="0" y1="0" x2="1" y2="0">
      <stop offset="0%" stop-color="#7a4ff7" stop-opacity="0"/><stop offset="50%" stop-color="#8b5ef6" stop-opacity=".6"/><stop offset="100%" stop-color="#2bd6a4" stop-opacity="0"/>
    </linearGradient>
    <filter id="soft" x="-30%" y="-60%" width="160%" height="260%"><feGaussianBlur stdDeviation="46"/></filter>
    <filter id="softer" x="-30%" y="-60%" width="160%" height="260%"><feGaussianBlur stdDeviation="70"/></filter>
  </defs>
  <rect width="1280" height="720" fill="url(#sky)"/>
  <g filter="url(#soft)">
    <path d="M-60 300 C 240 170, 420 340, 700 250 S 1140 150, 1340 240 L1340 420 C 1080 330, 820 460, 600 400 S 180 430, -60 460 Z" fill="url(#band1)"/>
  </g>
  <g filter="url(#softer)" opacity=".85">
    <path d="M-60 420 C 260 320, 500 470, 760 380 S 1160 320, 1340 380 L1340 540 C 1020 470, 760 570, 520 520 S 140 530, -60 560 Z" fill="url(#band2)"/>
  </g>
  <g fill="#ffffff">
    <circle cx="140" cy="90" r="1.6" opacity=".8"/><circle cx="320" cy="60" r="1.2" opacity=".6"/><circle cx="520" cy="120" r="1.5" opacity=".7"/>
    <circle cx="760" cy="70" r="1.3" opacity=".65"/><circle cx="980" cy="130" r="1.7" opacity=".8"/><circle cx="1140" cy="60" r="1.2" opacity=".55"/>
    <circle cx="1220" cy="180" r="1.4" opacity=".6"/><circle cx="60" cy="200" r="1.3" opacity=".5"/><circle cx="880" cy="220" r="1.1" opacity=".45"/>
  </g>
  <rect width="1280" height="720" fill="#05070d" opacity=".18"/>
</svg>
